<mxfile host="Electron" agent="Mozilla/5.0 (Windows NT 10.0; Win64; x64) AppleWebKit/537.36 (KHTML, like Gecko) draw.io/28.2.8 Chrome/140.0.7339.240 Electron/38.4.0 Safari/537.36" version="28.2.8">
  <diagram name="Page-1" id="BrIxraqx9iUVJz_7GiIv">
    <mxGraphModel dx="1918" dy="663" grid="1" gridSize="10" guides="1" tooltips="1" connect="1" arrows="1" fold="1" page="1" pageScale="1" pageWidth="850" pageHeight="1100" math="0" shadow="0">
      <root>
        <mxCell id="0" />
        <mxCell id="1" parent="0" />
        <mxCell id="gklIOLUVA3WY1OQQszyn-18" value="DEPARTMENT" style="swimlane;fontStyle=0;childLayout=stackLayout;horizontal=1;startSize=26;horizontalStack=0;resizeParent=1;resizeParentMax=0;resizeLast=0;collapsible=1;marginBottom=0;align=center;fontSize=14;" parent="1" vertex="1">
          <mxGeometry x="930" y="130" width="160" height="116" as="geometry">
            <mxRectangle x="350" y="260" width="60" height="30" as="alternateBounds" />
          </mxGeometry>
        </mxCell>
        <mxCell id="gklIOLUVA3WY1OQQszyn-19" value="&lt;u&gt;Dep_id&lt;/u&gt;" style="text;strokeColor=none;fillColor=none;spacingLeft=4;spacingRight=4;overflow=hidden;rotatable=0;points=[[0,0.5],[1,0.5]];portConstraint=eastwest;fontSize=12;whiteSpace=wrap;html=1;" parent="gklIOLUVA3WY1OQQszyn-18" vertex="1">
          <mxGeometry y="26" width="160" height="30" as="geometry" />
        </mxCell>
        <mxCell id="gklIOLUVA3WY1OQQszyn-20" value="Dep_name" style="text;strokeColor=none;fillColor=none;spacingLeft=4;spacingRight=4;overflow=hidden;rotatable=0;points=[[0,0.5],[1,0.5]];portConstraint=eastwest;fontSize=12;whiteSpace=wrap;html=1;" parent="gklIOLUVA3WY1OQQszyn-18" vertex="1">
          <mxGeometry y="56" width="160" height="30" as="geometry" />
        </mxCell>
        <mxCell id="gklIOLUVA3WY1OQQszyn-21" value="Contact_email" style="text;strokeColor=none;fillColor=none;spacingLeft=4;spacingRight=4;overflow=hidden;rotatable=0;points=[[0,0.5],[1,0.5]];portConstraint=eastwest;fontSize=12;whiteSpace=wrap;html=1;" parent="gklIOLUVA3WY1OQQszyn-18" vertex="1">
          <mxGeometry y="86" width="160" height="30" as="geometry" />
        </mxCell>
        <mxCell id="gklIOLUVA3WY1OQQszyn-22" value="USER" style="swimlane;fontStyle=0;childLayout=stackLayout;horizontal=1;startSize=26;horizontalStack=0;resizeParent=1;resizeParentMax=0;resizeLast=0;collapsible=1;marginBottom=0;align=center;fontSize=14;" parent="1" vertex="1">
          <mxGeometry x="540" y="280" width="160" height="236" as="geometry" />
        </mxCell>
        <mxCell id="gklIOLUVA3WY1OQQszyn-23" value="&lt;u&gt;Id&lt;/u&gt;" style="text;strokeColor=none;fillColor=none;spacingLeft=4;spacingRight=4;overflow=hidden;rotatable=0;points=[[0,0.5],[1,0.5]];portConstraint=eastwest;fontSize=12;whiteSpace=wrap;html=1;" parent="gklIOLUVA3WY1OQQszyn-22" vertex="1">
          <mxGeometry y="26" width="160" height="30" as="geometry" />
        </mxCell>
        <mxCell id="gklIOLUVA3WY1OQQszyn-24" value="F_name" style="text;strokeColor=none;fillColor=none;spacingLeft=4;spacingRight=4;overflow=hidden;rotatable=0;points=[[0,0.5],[1,0.5]];portConstraint=eastwest;fontSize=12;whiteSpace=wrap;html=1;" parent="gklIOLUVA3WY1OQQszyn-22" vertex="1">
          <mxGeometry y="56" width="160" height="30" as="geometry" />
        </mxCell>
        <mxCell id="gklIOLUVA3WY1OQQszyn-25" value="L_name" style="text;strokeColor=none;fillColor=none;spacingLeft=4;spacingRight=4;overflow=hidden;rotatable=0;points=[[0,0.5],[1,0.5]];portConstraint=eastwest;fontSize=12;whiteSpace=wrap;html=1;" parent="gklIOLUVA3WY1OQQszyn-22" vertex="1">
          <mxGeometry y="86" width="160" height="30" as="geometry" />
        </mxCell>
        <mxCell id="gklIOLUVA3WY1OQQszyn-26" value="Nic" style="text;strokeColor=none;fillColor=none;spacingLeft=4;spacingRight=4;overflow=hidden;rotatable=0;points=[[0,0.5],[1,0.5]];portConstraint=eastwest;fontSize=12;whiteSpace=wrap;html=1;" parent="gklIOLUVA3WY1OQQszyn-22" vertex="1">
          <mxGeometry y="116" width="160" height="30" as="geometry" />
        </mxCell>
        <mxCell id="gklIOLUVA3WY1OQQszyn-27" value="Type" style="text;strokeColor=none;fillColor=none;spacingLeft=4;spacingRight=4;overflow=hidden;rotatable=0;points=[[0,0.5],[1,0.5]];portConstraint=eastwest;fontSize=12;whiteSpace=wrap;html=1;" parent="gklIOLUVA3WY1OQQszyn-22" vertex="1">
          <mxGeometry y="146" width="160" height="30" as="geometry" />
        </mxCell>
        <mxCell id="rYQUkMfxaFFYpaaAriBw-17" value="E_mail" style="text;strokeColor=none;fillColor=none;spacingLeft=4;spacingRight=4;overflow=hidden;rotatable=0;points=[[0,0.5],[1,0.5]];portConstraint=eastwest;fontSize=12;whiteSpace=wrap;html=1;" parent="gklIOLUVA3WY1OQQszyn-22" vertex="1">
          <mxGeometry y="176" width="160" height="30" as="geometry" />
        </mxCell>
        <mxCell id="rYQUkMfxaFFYpaaAriBw-18" value="Contact_no" style="text;strokeColor=none;fillColor=none;spacingLeft=4;spacingRight=4;overflow=hidden;rotatable=0;points=[[0,0.5],[1,0.5]];portConstraint=eastwest;fontSize=12;whiteSpace=wrap;html=1;" parent="gklIOLUVA3WY1OQQszyn-22" vertex="1">
          <mxGeometry y="206" width="160" height="30" as="geometry" />
        </mxCell>
        <mxCell id="gklIOLUVA3WY1OQQszyn-29" value="LECTURER" style="swimlane;fontStyle=0;childLayout=stackLayout;horizontal=1;startSize=26;horizontalStack=0;resizeParent=1;resizeParentMax=0;resizeLast=0;collapsible=1;marginBottom=0;align=center;fontSize=14;" parent="1" vertex="1">
          <mxGeometry x="540" y="790" width="160" height="116" as="geometry" />
        </mxCell>
        <mxCell id="gklIOLUVA3WY1OQQszyn-30" value="&lt;u&gt;Lec_id&lt;/u&gt;" style="text;strokeColor=none;fillColor=none;spacingLeft=4;spacingRight=4;overflow=hidden;rotatable=0;points=[[0,0.5],[1,0.5]];portConstraint=eastwest;fontSize=12;whiteSpace=wrap;html=1;" parent="gklIOLUVA3WY1OQQszyn-29" vertex="1">
          <mxGeometry y="26" width="160" height="30" as="geometry" />
        </mxCell>
        <mxCell id="gklIOLUVA3WY1OQQszyn-31" value="Designation" style="text;strokeColor=none;fillColor=none;spacingLeft=4;spacingRight=4;overflow=hidden;rotatable=0;points=[[0,0.5],[1,0.5]];portConstraint=eastwest;fontSize=12;whiteSpace=wrap;html=1;" parent="gklIOLUVA3WY1OQQszyn-29" vertex="1">
          <mxGeometry y="56" width="160" height="30" as="geometry" />
        </mxCell>
        <mxCell id="gklIOLUVA3WY1OQQszyn-32" value="Department_id" style="text;strokeColor=none;fillColor=none;spacingLeft=4;spacingRight=4;overflow=hidden;rotatable=0;points=[[0,0.5],[1,0.5]];portConstraint=eastwest;fontSize=12;whiteSpace=wrap;html=1;" parent="gklIOLUVA3WY1OQQszyn-29" vertex="1">
          <mxGeometry y="86" width="160" height="30" as="geometry" />
        </mxCell>
        <mxCell id="gklIOLUVA3WY1OQQszyn-33" value="LECTURER_DEGREE" style="swimlane;fontStyle=0;childLayout=stackLayout;horizontal=1;startSize=26;horizontalStack=0;resizeParent=1;resizeParentMax=0;resizeLast=0;collapsible=1;marginBottom=0;align=center;fontSize=14;" parent="1" vertex="1">
          <mxGeometry x="-220" y="1040" width="170" height="86" as="geometry" />
        </mxCell>
        <mxCell id="gklIOLUVA3WY1OQQszyn-34" value="&lt;u&gt;Lec_id&lt;/u&gt;" style="text;strokeColor=none;fillColor=none;spacingLeft=4;spacingRight=4;overflow=hidden;rotatable=0;points=[[0,0.5],[1,0.5]];portConstraint=eastwest;fontSize=12;whiteSpace=wrap;html=1;" parent="gklIOLUVA3WY1OQQszyn-33" vertex="1">
          <mxGeometry y="26" width="170" height="30" as="geometry" />
        </mxCell>
        <mxCell id="gklIOLUVA3WY1OQQszyn-35" value="&lt;u&gt;Degree&lt;/u&gt;" style="text;strokeColor=none;fillColor=none;spacingLeft=4;spacingRight=4;overflow=hidden;rotatable=0;points=[[0,0.5],[1,0.5]];portConstraint=eastwest;fontSize=12;whiteSpace=wrap;html=1;" parent="gklIOLUVA3WY1OQQszyn-33" vertex="1">
          <mxGeometry y="56" width="170" height="30" as="geometry" />
        </mxCell>
        <mxCell id="gklIOLUVA3WY1OQQszyn-37" value="TECHNICAL_OFFICER" style="swimlane;fontStyle=0;childLayout=stackLayout;horizontal=1;startSize=30;horizontalStack=0;resizeParent=1;resizeParentMax=0;resizeLast=0;collapsible=1;marginBottom=0;whiteSpace=wrap;html=1;" parent="1" vertex="1">
          <mxGeometry x="810" y="490" width="150" height="90" as="geometry" />
        </mxCell>
        <mxCell id="gklIOLUVA3WY1OQQszyn-38" value="&lt;u&gt;Id&lt;/u&gt;" style="text;strokeColor=none;fillColor=none;align=left;verticalAlign=middle;spacingLeft=4;spacingRight=4;overflow=hidden;points=[[0,0.5],[1,0.5]];portConstraint=eastwest;rotatable=0;whiteSpace=wrap;html=1;" parent="gklIOLUVA3WY1OQQszyn-37" vertex="1">
          <mxGeometry y="30" width="150" height="30" as="geometry" />
        </mxCell>
        <mxCell id="gklIOLUVA3WY1OQQszyn-39" value="Hash_pwd" style="text;strokeColor=none;fillColor=none;align=left;verticalAlign=middle;spacingLeft=4;spacingRight=4;overflow=hidden;points=[[0,0.5],[1,0.5]];portConstraint=eastwest;rotatable=0;whiteSpace=wrap;html=1;" parent="gklIOLUVA3WY1OQQszyn-37" vertex="1">
          <mxGeometry y="60" width="150" height="30" as="geometry" />
        </mxCell>
        <mxCell id="gklIOLUVA3WY1OQQszyn-41" value="ADMIN" style="swimlane;fontStyle=0;childLayout=stackLayout;horizontal=1;startSize=26;horizontalStack=0;resizeParent=1;resizeParentMax=0;resizeLast=0;collapsible=1;marginBottom=0;align=center;fontSize=14;" parent="1" vertex="1">
          <mxGeometry x="-220" y="110" width="160" height="86" as="geometry" />
        </mxCell>
        <mxCell id="gklIOLUVA3WY1OQQszyn-42" value="&lt;u&gt;Id&lt;/u&gt;" style="text;strokeColor=none;fillColor=none;spacingLeft=4;spacingRight=4;overflow=hidden;rotatable=0;points=[[0,0.5],[1,0.5]];portConstraint=eastwest;fontSize=12;whiteSpace=wrap;html=1;" parent="gklIOLUVA3WY1OQQszyn-41" vertex="1">
          <mxGeometry y="26" width="160" height="30" as="geometry" />
        </mxCell>
        <mxCell id="gklIOLUVA3WY1OQQszyn-43" value="Hash_pwd" style="text;strokeColor=none;fillColor=none;spacingLeft=4;spacingRight=4;overflow=hidden;rotatable=0;points=[[0,0.5],[1,0.5]];portConstraint=eastwest;fontSize=12;whiteSpace=wrap;html=1;" parent="gklIOLUVA3WY1OQQszyn-41" vertex="1">
          <mxGeometry y="56" width="160" height="30" as="geometry" />
        </mxCell>
        <mxCell id="gklIOLUVA3WY1OQQszyn-45" value="DEAN" style="swimlane;fontStyle=0;childLayout=stackLayout;horizontal=1;startSize=30;horizontalStack=0;resizeParent=1;resizeParentMax=0;resizeLast=0;collapsible=1;marginBottom=0;whiteSpace=wrap;html=1;" parent="1" vertex="1">
          <mxGeometry x="-270" y="570" width="140" height="120" as="geometry" />
        </mxCell>
        <mxCell id="gklIOLUVA3WY1OQQszyn-46" value="&lt;u&gt;Id&lt;/u&gt;" style="text;strokeColor=none;fillColor=none;align=left;verticalAlign=middle;spacingLeft=4;spacingRight=4;overflow=hidden;points=[[0,0.5],[1,0.5]];portConstraint=eastwest;rotatable=0;whiteSpace=wrap;html=1;" parent="gklIOLUVA3WY1OQQszyn-45" vertex="1">
          <mxGeometry y="30" width="140" height="30" as="geometry" />
        </mxCell>
        <mxCell id="gklIOLUVA3WY1OQQszyn-47" value="Appoint_date" style="text;strokeColor=none;fillColor=none;align=left;verticalAlign=middle;spacingLeft=4;spacingRight=4;overflow=hidden;points=[[0,0.5],[1,0.5]];portConstraint=eastwest;rotatable=0;whiteSpace=wrap;html=1;" parent="gklIOLUVA3WY1OQQszyn-45" vertex="1">
          <mxGeometry y="60" width="140" height="30" as="geometry" />
        </mxCell>
        <mxCell id="gklIOLUVA3WY1OQQszyn-48" value="Office_room" style="text;strokeColor=none;fillColor=none;align=left;verticalAlign=middle;spacingLeft=4;spacingRight=4;overflow=hidden;points=[[0,0.5],[1,0.5]];portConstraint=eastwest;rotatable=0;whiteSpace=wrap;html=1;" parent="gklIOLUVA3WY1OQQszyn-45" vertex="1">
          <mxGeometry y="90" width="140" height="30" as="geometry" />
        </mxCell>
        <mxCell id="gklIOLUVA3WY1OQQszyn-49" value="STUDENT" style="swimlane;fontStyle=0;childLayout=stackLayout;horizontal=1;startSize=26;horizontalStack=0;resizeParent=1;resizeParentMax=0;resizeLast=0;collapsible=1;marginBottom=0;align=center;fontSize=14;" parent="1" vertex="1">
          <mxGeometry x="160" y="1310" width="160" height="236" as="geometry" />
        </mxCell>
        <mxCell id="gklIOLUVA3WY1OQQszyn-50" value="&lt;u&gt;Reg_no&lt;/u&gt;" style="text;strokeColor=none;fillColor=none;spacingLeft=4;spacingRight=4;overflow=hidden;rotatable=0;points=[[0,0.5],[1,0.5]];portConstraint=eastwest;fontSize=12;whiteSpace=wrap;html=1;" parent="gklIOLUVA3WY1OQQszyn-49" vertex="1">
          <mxGeometry y="26" width="160" height="30" as="geometry" />
        </mxCell>
        <mxCell id="gklIOLUVA3WY1OQQszyn-51" value="year" style="text;strokeColor=none;fillColor=none;spacingLeft=4;spacingRight=4;overflow=hidden;rotatable=0;points=[[0,0.5],[1,0.5]];portConstraint=eastwest;fontSize=12;whiteSpace=wrap;html=1;" parent="gklIOLUVA3WY1OQQszyn-49" vertex="1">
          <mxGeometry y="56" width="160" height="30" as="geometry" />
        </mxCell>
        <mxCell id="gklIOLUVA3WY1OQQszyn-52" value="Dob" style="text;strokeColor=none;fillColor=none;spacingLeft=4;spacingRight=4;overflow=hidden;rotatable=0;points=[[0,0.5],[1,0.5]];portConstraint=eastwest;fontSize=12;whiteSpace=wrap;html=1;" parent="gklIOLUVA3WY1OQQszyn-49" vertex="1">
          <mxGeometry y="86" width="160" height="30" as="geometry" />
        </mxCell>
        <mxCell id="gklIOLUVA3WY1OQQszyn-56" value="Gender" style="text;strokeColor=none;fillColor=none;spacingLeft=4;spacingRight=4;overflow=hidden;rotatable=0;points=[[0,0.5],[1,0.5]];portConstraint=eastwest;fontSize=12;whiteSpace=wrap;html=1;" parent="gklIOLUVA3WY1OQQszyn-49" vertex="1">
          <mxGeometry y="116" width="160" height="30" as="geometry" />
        </mxCell>
        <mxCell id="gklIOLUVA3WY1OQQszyn-53" value="Status" style="text;strokeColor=none;fillColor=none;spacingLeft=4;spacingRight=4;overflow=hidden;rotatable=0;points=[[0,0.5],[1,0.5]];portConstraint=eastwest;fontSize=12;whiteSpace=wrap;html=1;" parent="gklIOLUVA3WY1OQQszyn-49" vertex="1">
          <mxGeometry y="146" width="160" height="30" as="geometry" />
        </mxCell>
        <mxCell id="gklIOLUVA3WY1OQQszyn-54" value="Mentor_id" style="text;strokeColor=none;fillColor=none;spacingLeft=4;spacingRight=4;overflow=hidden;rotatable=0;points=[[0,0.5],[1,0.5]];portConstraint=eastwest;fontSize=12;whiteSpace=wrap;html=1;" parent="gklIOLUVA3WY1OQQszyn-49" vertex="1">
          <mxGeometry y="176" width="160" height="30" as="geometry" />
        </mxCell>
        <mxCell id="gklIOLUVA3WY1OQQszyn-55" value="Department_id" style="text;strokeColor=none;fillColor=none;spacingLeft=4;spacingRight=4;overflow=hidden;rotatable=0;points=[[0,0.5],[1,0.5]];portConstraint=eastwest;fontSize=12;whiteSpace=wrap;html=1;" parent="gklIOLUVA3WY1OQQszyn-49" vertex="1">
          <mxGeometry y="206" width="160" height="30" as="geometry" />
        </mxCell>
        <mxCell id="gklIOLUVA3WY1OQQszyn-57" value="MARKS" style="swimlane;fontStyle=0;childLayout=stackLayout;horizontal=1;startSize=26;horizontalStack=0;resizeParent=1;resizeParentMax=0;resizeLast=0;collapsible=1;marginBottom=0;align=center;fontSize=14;" parent="1" vertex="1">
          <mxGeometry x="-380" y="1510" width="160" height="206" as="geometry" />
        </mxCell>
        <mxCell id="gklIOLUVA3WY1OQQszyn-58" value="&lt;u&gt;Mark_id&lt;/u&gt;" style="text;strokeColor=none;fillColor=none;spacingLeft=4;spacingRight=4;overflow=hidden;rotatable=0;points=[[0,0.5],[1,0.5]];portConstraint=eastwest;fontSize=12;whiteSpace=wrap;html=1;" parent="gklIOLUVA3WY1OQQszyn-57" vertex="1">
          <mxGeometry y="26" width="160" height="30" as="geometry" />
        </mxCell>
        <mxCell id="rYQUkMfxaFFYpaaAriBw-3" value="Mark" style="text;strokeColor=none;fillColor=none;spacingLeft=4;spacingRight=4;overflow=hidden;rotatable=0;points=[[0,0.5],[1,0.5]];portConstraint=eastwest;fontSize=12;whiteSpace=wrap;html=1;" parent="gklIOLUVA3WY1OQQszyn-57" vertex="1">
          <mxGeometry y="56" width="160" height="30" as="geometry" />
        </mxCell>
        <mxCell id="gklIOLUVA3WY1OQQszyn-71" value="Reg_no" style="text;strokeColor=none;fillColor=none;spacingLeft=4;spacingRight=4;overflow=hidden;rotatable=0;points=[[0,0.5],[1,0.5]];portConstraint=eastwest;fontSize=12;whiteSpace=wrap;html=1;" parent="gklIOLUVA3WY1OQQszyn-57" vertex="1">
          <mxGeometry y="86" width="160" height="30" as="geometry" />
        </mxCell>
        <mxCell id="gklIOLUVA3WY1OQQszyn-70" value="Type_id" style="text;strokeColor=none;fillColor=none;spacingLeft=4;spacingRight=4;overflow=hidden;rotatable=0;points=[[0,0.5],[1,0.5]];portConstraint=eastwest;fontSize=12;whiteSpace=wrap;html=1;" parent="gklIOLUVA3WY1OQQszyn-57" vertex="1">
          <mxGeometry y="116" width="160" height="30" as="geometry" />
        </mxCell>
        <mxCell id="gklIOLUVA3WY1OQQszyn-72" value="Ref_no" style="text;strokeColor=none;fillColor=none;spacingLeft=4;spacingRight=4;overflow=hidden;rotatable=0;points=[[0,0.5],[1,0.5]];portConstraint=eastwest;fontSize=12;whiteSpace=wrap;html=1;" parent="gklIOLUVA3WY1OQQszyn-57" vertex="1">
          <mxGeometry y="146" width="160" height="30" as="geometry" />
        </mxCell>
        <mxCell id="gklIOLUVA3WY1OQQszyn-73" value="Course_code" style="text;strokeColor=none;fillColor=none;spacingLeft=4;spacingRight=4;overflow=hidden;rotatable=0;points=[[0,0.5],[1,0.5]];portConstraint=eastwest;fontSize=12;whiteSpace=wrap;html=1;" parent="gklIOLUVA3WY1OQQszyn-57" vertex="1">
          <mxGeometry y="176" width="160" height="30" as="geometry" />
        </mxCell>
        <mxCell id="gklIOLUVA3WY1OQQszyn-74" value="MEDICAL" style="swimlane;fontStyle=0;childLayout=stackLayout;horizontal=1;startSize=26;horizontalStack=0;resizeParent=1;resizeParentMax=0;resizeLast=0;collapsible=1;marginBottom=0;align=center;fontSize=14;" parent="1" vertex="1">
          <mxGeometry x="610" y="1950" width="160" height="206" as="geometry" />
        </mxCell>
        <mxCell id="gklIOLUVA3WY1OQQszyn-75" value="&lt;u&gt;Ref_no&lt;/u&gt;" style="text;strokeColor=none;fillColor=none;spacingLeft=4;spacingRight=4;overflow=hidden;rotatable=0;points=[[0,0.5],[1,0.5]];portConstraint=eastwest;fontSize=12;whiteSpace=wrap;html=1;" parent="gklIOLUVA3WY1OQQszyn-74" vertex="1">
          <mxGeometry y="26" width="160" height="30" as="geometry" />
        </mxCell>
        <mxCell id="gklIOLUVA3WY1OQQszyn-77" value="Status" style="text;strokeColor=none;fillColor=none;spacingLeft=4;spacingRight=4;overflow=hidden;rotatable=0;points=[[0,0.5],[1,0.5]];portConstraint=eastwest;fontSize=12;whiteSpace=wrap;html=1;" parent="gklIOLUVA3WY1OQQszyn-74" vertex="1">
          <mxGeometry y="56" width="160" height="30" as="geometry" />
        </mxCell>
        <mxCell id="gklIOLUVA3WY1OQQszyn-78" value="Reason" style="text;strokeColor=none;fillColor=none;spacingLeft=4;spacingRight=4;overflow=hidden;rotatable=0;points=[[0,0.5],[1,0.5]];portConstraint=eastwest;fontSize=12;whiteSpace=wrap;html=1;" parent="gklIOLUVA3WY1OQQszyn-74" vertex="1">
          <mxGeometry y="86" width="160" height="30" as="geometry" />
        </mxCell>
        <mxCell id="yjjlthWo8UBNq7ABsMTa-5" value="Start_date" style="text;strokeColor=none;fillColor=none;spacingLeft=4;spacingRight=4;overflow=hidden;rotatable=0;points=[[0,0.5],[1,0.5]];portConstraint=eastwest;fontSize=12;whiteSpace=wrap;html=1;" parent="gklIOLUVA3WY1OQQszyn-74" vertex="1">
          <mxGeometry y="116" width="160" height="30" as="geometry" />
        </mxCell>
        <mxCell id="gklIOLUVA3WY1OQQszyn-76" value="End_date" style="text;strokeColor=none;fillColor=none;spacingLeft=4;spacingRight=4;overflow=hidden;rotatable=0;points=[[0,0.5],[1,0.5]];portConstraint=eastwest;fontSize=12;whiteSpace=wrap;html=1;" parent="gklIOLUVA3WY1OQQszyn-74" vertex="1">
          <mxGeometry y="146" width="160" height="30" as="geometry" />
        </mxCell>
        <mxCell id="gklIOLUVA3WY1OQQszyn-79" value="Reg_no" style="text;strokeColor=none;fillColor=none;spacingLeft=4;spacingRight=4;overflow=hidden;rotatable=0;points=[[0,0.5],[1,0.5]];portConstraint=eastwest;fontSize=12;whiteSpace=wrap;html=1;" parent="gklIOLUVA3WY1OQQszyn-74" vertex="1">
          <mxGeometry y="176" width="160" height="30" as="geometry" />
        </mxCell>
        <mxCell id="gklIOLUVA3WY1OQQszyn-80" value="Course_unit" style="swimlane;fontStyle=0;childLayout=stackLayout;horizontal=1;startSize=26;horizontalStack=0;resizeParent=1;resizeParentMax=0;resizeLast=0;collapsible=1;marginBottom=0;align=center;fontSize=14;" parent="1" vertex="1">
          <mxGeometry x="1020" y="2710" width="160" height="146" as="geometry" />
        </mxCell>
        <mxCell id="rYQUkMfxaFFYpaaAriBw-11" value="&lt;u&gt;Course_code&lt;/u&gt;" style="text;strokeColor=none;fillColor=none;spacingLeft=4;spacingRight=4;overflow=hidden;rotatable=0;points=[[0,0.5],[1,0.5]];portConstraint=eastwest;fontSize=12;whiteSpace=wrap;html=1;" parent="gklIOLUVA3WY1OQQszyn-80" vertex="1">
          <mxGeometry y="26" width="160" height="30" as="geometry" />
        </mxCell>
        <mxCell id="gklIOLUVA3WY1OQQszyn-82" value="Credits" style="text;strokeColor=none;fillColor=none;spacingLeft=4;spacingRight=4;overflow=hidden;rotatable=0;points=[[0,0.5],[1,0.5]];portConstraint=eastwest;fontSize=12;whiteSpace=wrap;html=1;" parent="gklIOLUVA3WY1OQQszyn-80" vertex="1">
          <mxGeometry y="56" width="160" height="30" as="geometry" />
        </mxCell>
        <mxCell id="gklIOLUVA3WY1OQQszyn-83" value="Title" style="text;strokeColor=none;fillColor=none;spacingLeft=4;spacingRight=4;overflow=hidden;rotatable=0;points=[[0,0.5],[1,0.5]];portConstraint=eastwest;fontSize=12;whiteSpace=wrap;html=1;" parent="gklIOLUVA3WY1OQQszyn-80" vertex="1">
          <mxGeometry y="86" width="160" height="30" as="geometry" />
        </mxCell>
        <mxCell id="gklIOLUVA3WY1OQQszyn-85" value="Depaertment_id" style="text;strokeColor=none;fillColor=none;spacingLeft=4;spacingRight=4;overflow=hidden;rotatable=0;points=[[0,0.5],[1,0.5]];portConstraint=eastwest;fontSize=12;whiteSpace=wrap;html=1;" parent="gklIOLUVA3WY1OQQszyn-80" vertex="1">
          <mxGeometry y="116" width="160" height="30" as="geometry" />
        </mxCell>
        <mxCell id="gklIOLUVA3WY1OQQszyn-86" value="ATTENDENCE" style="swimlane;fontStyle=0;childLayout=stackLayout;horizontal=1;startSize=30;horizontalStack=0;resizeParent=1;resizeParentMax=0;resizeLast=0;collapsible=1;marginBottom=0;whiteSpace=wrap;html=1;" parent="1" vertex="1">
          <mxGeometry x="1275" y="2240" width="140" height="210" as="geometry" />
        </mxCell>
        <mxCell id="gklIOLUVA3WY1OQQszyn-87" value="&lt;u&gt;Attendence_id&lt;/u&gt;" style="text;strokeColor=none;fillColor=none;align=left;verticalAlign=middle;spacingLeft=4;spacingRight=4;overflow=hidden;points=[[0,0.5],[1,0.5]];portConstraint=eastwest;rotatable=0;whiteSpace=wrap;html=1;" parent="gklIOLUVA3WY1OQQszyn-86" vertex="1">
          <mxGeometry y="30" width="140" height="30" as="geometry" />
        </mxCell>
        <mxCell id="gklIOLUVA3WY1OQQszyn-88" value="Week_no" style="text;strokeColor=none;fillColor=none;align=left;verticalAlign=middle;spacingLeft=4;spacingRight=4;overflow=hidden;points=[[0,0.5],[1,0.5]];portConstraint=eastwest;rotatable=0;whiteSpace=wrap;html=1;" parent="gklIOLUVA3WY1OQQszyn-86" vertex="1">
          <mxGeometry y="60" width="140" height="30" as="geometry" />
        </mxCell>
        <mxCell id="gklIOLUVA3WY1OQQszyn-89" value="Status" style="text;strokeColor=none;fillColor=none;align=left;verticalAlign=middle;spacingLeft=4;spacingRight=4;overflow=hidden;points=[[0,0.5],[1,0.5]];portConstraint=eastwest;rotatable=0;whiteSpace=wrap;html=1;" parent="gklIOLUVA3WY1OQQszyn-86" vertex="1">
          <mxGeometry y="90" width="140" height="30" as="geometry" />
        </mxCell>
        <mxCell id="gklIOLUVA3WY1OQQszyn-90" value="Reg_no" style="text;strokeColor=none;fillColor=none;align=left;verticalAlign=middle;spacingLeft=4;spacingRight=4;overflow=hidden;points=[[0,0.5],[1,0.5]];portConstraint=eastwest;rotatable=0;whiteSpace=wrap;html=1;" parent="gklIOLUVA3WY1OQQszyn-86" vertex="1">
          <mxGeometry y="120" width="140" height="30" as="geometry" />
        </mxCell>
        <mxCell id="gklIOLUVA3WY1OQQszyn-91" value="Course_code" style="text;strokeColor=none;fillColor=none;align=left;verticalAlign=middle;spacingLeft=4;spacingRight=4;overflow=hidden;points=[[0,0.5],[1,0.5]];portConstraint=eastwest;rotatable=0;whiteSpace=wrap;html=1;" parent="gklIOLUVA3WY1OQQszyn-86" vertex="1">
          <mxGeometry y="150" width="140" height="30" as="geometry" />
        </mxCell>
        <mxCell id="gklIOLUVA3WY1OQQszyn-92" value="Ref_no" style="text;strokeColor=none;fillColor=none;align=left;verticalAlign=middle;spacingLeft=4;spacingRight=4;overflow=hidden;points=[[0,0.5],[1,0.5]];portConstraint=eastwest;rotatable=0;whiteSpace=wrap;html=1;" parent="gklIOLUVA3WY1OQQszyn-86" vertex="1">
          <mxGeometry y="180" width="140" height="30" as="geometry" />
        </mxCell>
        <mxCell id="gklIOLUVA3WY1OQQszyn-93" value="STUDENT_GUARDIAN" style="swimlane;fontStyle=0;childLayout=stackLayout;horizontal=1;startSize=26;horizontalStack=0;resizeParent=1;resizeParentMax=0;resizeLast=0;collapsible=1;marginBottom=0;align=center;fontSize=14;" parent="1" vertex="1">
          <mxGeometry x="-400" y="2330" width="200" height="206" as="geometry" />
        </mxCell>
        <mxCell id="gklIOLUVA3WY1OQQszyn-94" value="Reg_no" style="text;strokeColor=none;fillColor=none;spacingLeft=4;spacingRight=4;overflow=hidden;rotatable=0;points=[[0,0.5],[1,0.5]];portConstraint=eastwest;fontSize=12;whiteSpace=wrap;html=1;" parent="gklIOLUVA3WY1OQQszyn-93" vertex="1">
          <mxGeometry y="26" width="200" height="30" as="geometry" />
        </mxCell>
        <mxCell id="gklIOLUVA3WY1OQQszyn-111" value="" style="endArrow=none;dashed=1;html=1;rounded=0;" parent="gklIOLUVA3WY1OQQszyn-93" edge="1">
          <mxGeometry width="50" height="50" relative="1" as="geometry">
            <mxPoint x="10" y="49.999999999999964" as="sourcePoint" />
            <mxPoint x="50" y="50" as="targetPoint" />
          </mxGeometry>
        </mxCell>
        <mxCell id="gklIOLUVA3WY1OQQszyn-95" value="Guardian_id" style="text;strokeColor=none;fillColor=none;spacingLeft=4;spacingRight=4;overflow=hidden;rotatable=0;points=[[0,0.5],[1,0.5]];portConstraint=eastwest;fontSize=12;whiteSpace=wrap;html=1;" parent="gklIOLUVA3WY1OQQszyn-93" vertex="1">
          <mxGeometry y="56" width="200" height="30" as="geometry" />
        </mxCell>
        <mxCell id="gklIOLUVA3WY1OQQszyn-113" value="" style="endArrow=none;dashed=1;html=1;rounded=0;" parent="gklIOLUVA3WY1OQQszyn-93" edge="1">
          <mxGeometry width="50" height="50" relative="1" as="geometry">
            <mxPoint x="10" y="80" as="sourcePoint" />
            <mxPoint x="70" y="80" as="targetPoint" />
          </mxGeometry>
        </mxCell>
        <mxCell id="gklIOLUVA3WY1OQQszyn-96" value="Name" style="text;strokeColor=none;fillColor=none;spacingLeft=4;spacingRight=4;overflow=hidden;rotatable=0;points=[[0,0.5],[1,0.5]];portConstraint=eastwest;fontSize=12;whiteSpace=wrap;html=1;" parent="gklIOLUVA3WY1OQQszyn-93" vertex="1">
          <mxGeometry y="86" width="200" height="30" as="geometry" />
        </mxCell>
        <mxCell id="gklIOLUVA3WY1OQQszyn-97" value="Contact_no" style="text;strokeColor=none;fillColor=none;spacingLeft=4;spacingRight=4;overflow=hidden;rotatable=0;points=[[0,0.5],[1,0.5]];portConstraint=eastwest;fontSize=12;whiteSpace=wrap;html=1;" parent="gklIOLUVA3WY1OQQszyn-93" vertex="1">
          <mxGeometry y="116" width="200" height="30" as="geometry" />
        </mxCell>
        <mxCell id="gklIOLUVA3WY1OQQszyn-98" value="Relationship" style="text;strokeColor=none;fillColor=none;spacingLeft=4;spacingRight=4;overflow=hidden;rotatable=0;points=[[0,0.5],[1,0.5]];portConstraint=eastwest;fontSize=12;whiteSpace=wrap;html=1;" parent="gklIOLUVA3WY1OQQszyn-93" vertex="1">
          <mxGeometry y="146" width="200" height="30" as="geometry" />
        </mxCell>
        <mxCell id="gklIOLUVA3WY1OQQszyn-99" value="Occupation" style="text;strokeColor=none;fillColor=none;spacingLeft=4;spacingRight=4;overflow=hidden;rotatable=0;points=[[0,0.5],[1,0.5]];portConstraint=eastwest;fontSize=12;whiteSpace=wrap;html=1;" parent="gklIOLUVA3WY1OQQszyn-93" vertex="1">
          <mxGeometry y="176" width="200" height="30" as="geometry" />
        </mxCell>
        <mxCell id="gklIOLUVA3WY1OQQszyn-100" value="STUDENT_COURSE" style="swimlane;fontStyle=0;childLayout=stackLayout;horizontal=1;startSize=30;horizontalStack=0;resizeParent=1;resizeParentMax=0;resizeLast=0;collapsible=1;marginBottom=0;whiteSpace=wrap;html=1;" parent="1" vertex="1">
          <mxGeometry x="270" y="2670" width="160" height="90" as="geometry" />
        </mxCell>
        <mxCell id="gklIOLUVA3WY1OQQszyn-101" value="&lt;u&gt;Reg_no&lt;/u&gt;" style="text;strokeColor=none;fillColor=none;align=left;verticalAlign=middle;spacingLeft=4;spacingRight=4;overflow=hidden;points=[[0,0.5],[1,0.5]];portConstraint=eastwest;rotatable=0;whiteSpace=wrap;html=1;" parent="gklIOLUVA3WY1OQQszyn-100" vertex="1">
          <mxGeometry y="30" width="160" height="30" as="geometry" />
        </mxCell>
        <mxCell id="gklIOLUVA3WY1OQQszyn-102" value="&lt;u&gt;Course_code&lt;/u&gt;" style="text;strokeColor=none;fillColor=none;align=left;verticalAlign=middle;spacingLeft=4;spacingRight=4;overflow=hidden;points=[[0,0.5],[1,0.5]];portConstraint=eastwest;rotatable=0;whiteSpace=wrap;html=1;" parent="gklIOLUVA3WY1OQQszyn-100" vertex="1">
          <mxGeometry y="60" width="160" height="30" as="geometry" />
        </mxCell>
        <mxCell id="gklIOLUVA3WY1OQQszyn-104" value="LECTURER_COURSE" style="swimlane;fontStyle=0;childLayout=stackLayout;horizontal=1;startSize=26;horizontalStack=0;resizeParent=1;resizeParentMax=0;resizeLast=0;collapsible=1;marginBottom=0;align=center;fontSize=14;" parent="1" vertex="1">
          <mxGeometry x="-320" y="3050" width="160" height="116" as="geometry" />
        </mxCell>
        <mxCell id="gklIOLUVA3WY1OQQszyn-105" value="&lt;u&gt;Lec_id&lt;/u&gt;" style="text;strokeColor=none;fillColor=none;spacingLeft=4;spacingRight=4;overflow=hidden;rotatable=0;points=[[0,0.5],[1,0.5]];portConstraint=eastwest;fontSize=12;whiteSpace=wrap;html=1;" parent="gklIOLUVA3WY1OQQszyn-104" vertex="1">
          <mxGeometry y="26" width="160" height="30" as="geometry" />
        </mxCell>
        <mxCell id="gklIOLUVA3WY1OQQszyn-106" value="&lt;u&gt;Course_code&lt;/u&gt;" style="text;strokeColor=none;fillColor=none;spacingLeft=4;spacingRight=4;overflow=hidden;rotatable=0;points=[[0,0.5],[1,0.5]];portConstraint=eastwest;fontSize=12;whiteSpace=wrap;html=1;" parent="gklIOLUVA3WY1OQQszyn-104" vertex="1">
          <mxGeometry y="56" width="160" height="30" as="geometry" />
        </mxCell>
        <mxCell id="gklIOLUVA3WY1OQQszyn-107" value="No_of_hours" style="text;strokeColor=none;fillColor=none;spacingLeft=4;spacingRight=4;overflow=hidden;rotatable=0;points=[[0,0.5],[1,0.5]];portConstraint=eastwest;fontSize=12;whiteSpace=wrap;html=1;" parent="gklIOLUVA3WY1OQQszyn-104" vertex="1">
          <mxGeometry y="86" width="160" height="30" as="geometry" />
        </mxCell>
        <mxCell id="gklIOLUVA3WY1OQQszyn-123" value="" style="endArrow=classic;html=1;rounded=0;exitX=0;exitY=0.5;exitDx=0;exitDy=0;entryX=1;entryY=0.5;entryDx=0;entryDy=0;" parent="1" source="gklIOLUVA3WY1OQQszyn-38" target="gklIOLUVA3WY1OQQszyn-23" edge="1">
          <mxGeometry width="50" height="50" relative="1" as="geometry">
            <mxPoint x="700" y="610" as="sourcePoint" />
            <mxPoint x="740" y="300" as="targetPoint" />
            <Array as="points">
              <mxPoint x="760" y="535" />
              <mxPoint x="760" y="321" />
            </Array>
          </mxGeometry>
        </mxCell>
        <mxCell id="gklIOLUVA3WY1OQQszyn-126" value="" style="endArrow=classic;html=1;rounded=0;exitX=1.002;exitY=0.759;exitDx=0;exitDy=0;exitPerimeter=0;entryX=-0.003;entryY=0.362;entryDx=0;entryDy=0;entryPerimeter=0;" parent="1" source="gklIOLUVA3WY1OQQszyn-46" target="gklIOLUVA3WY1OQQszyn-23" edge="1">
          <mxGeometry width="50" height="50" relative="1" as="geometry">
            <mxPoint x="-120" y="622" as="sourcePoint" />
            <mxPoint x="540" y="330" as="targetPoint" />
            <Array as="points">
              <mxPoint x="310" y="623" />
              <mxPoint x="310" y="317" />
            </Array>
          </mxGeometry>
        </mxCell>
        <mxCell id="gklIOLUVA3WY1OQQszyn-127" value="" style="endArrow=classic;html=1;rounded=0;exitX=1;exitY=0.5;exitDx=0;exitDy=0;entryX=-0.001;entryY=0.156;entryDx=0;entryDy=0;entryPerimeter=0;" parent="1" source="gklIOLUVA3WY1OQQszyn-42" target="gklIOLUVA3WY1OQQszyn-23" edge="1">
          <mxGeometry width="50" height="50" relative="1" as="geometry">
            <mxPoint x="-10" y="130" as="sourcePoint" />
            <mxPoint x="490" y="290" as="targetPoint" />
            <Array as="points">
              <mxPoint x="40" y="150" />
              <mxPoint x="40" y="310" />
            </Array>
          </mxGeometry>
        </mxCell>
        <mxCell id="gklIOLUVA3WY1OQQszyn-128" value="" style="endArrow=classic;html=1;rounded=0;exitX=1;exitY=0.5;exitDx=0;exitDy=0;entryX=-0.007;entryY=0.6;entryDx=0;entryDy=0;entryPerimeter=0;" parent="1" source="gklIOLUVA3WY1OQQszyn-34" target="gklIOLUVA3WY1OQQszyn-30" edge="1">
          <mxGeometry width="50" height="50" relative="1" as="geometry">
            <mxPoint x="90" y="1070" as="sourcePoint" />
            <mxPoint x="490" y="820" as="targetPoint" />
            <Array as="points">
              <mxPoint x="20" y="1080" />
              <mxPoint x="20" y="834" />
            </Array>
          </mxGeometry>
        </mxCell>
        <mxCell id="gklIOLUVA3WY1OQQszyn-132" value="" style="endArrow=classic;html=1;rounded=0;exitX=1;exitY=0.5;exitDx=0;exitDy=0;entryX=-0.007;entryY=0.824;entryDx=0;entryDy=0;entryPerimeter=0;" parent="1" source="gklIOLUVA3WY1OQQszyn-54" target="gklIOLUVA3WY1OQQszyn-30" edge="1">
          <mxGeometry width="50" height="50" relative="1" as="geometry">
            <mxPoint x="520" y="1190" as="sourcePoint" />
            <mxPoint x="490" y="850" as="targetPoint" />
            <Array as="points">
              <mxPoint x="420" y="1501" />
              <mxPoint x="420" y="840" />
            </Array>
          </mxGeometry>
        </mxCell>
        <mxCell id="gklIOLUVA3WY1OQQszyn-134" value="" style="endArrow=classic;html=1;rounded=0;exitX=1;exitY=0.5;exitDx=0;exitDy=0;entryX=-0.004;entryY=0.251;entryDx=0;entryDy=0;entryPerimeter=0;" parent="1" source="gklIOLUVA3WY1OQQszyn-71" target="gklIOLUVA3WY1OQQszyn-50" edge="1">
          <mxGeometry width="50" height="50" relative="1" as="geometry">
            <mxPoint x="-40" y="1650" as="sourcePoint" />
            <mxPoint x="10" y="1600" as="targetPoint" />
            <Array as="points">
              <mxPoint x="60" y="1611" />
              <mxPoint x="60" y="1344" />
            </Array>
          </mxGeometry>
        </mxCell>
        <mxCell id="gklIOLUVA3WY1OQQszyn-135" value="" style="endArrow=classic;html=1;rounded=0;exitX=1;exitY=0.5;exitDx=0;exitDy=0;entryX=-0.007;entryY=0.261;entryDx=0;entryDy=0;entryPerimeter=0;" parent="1" source="gklIOLUVA3WY1OQQszyn-72" target="gklIOLUVA3WY1OQQszyn-75" edge="1">
          <mxGeometry width="50" height="50" relative="1" as="geometry">
            <mxPoint x="320" y="1820" as="sourcePoint" />
            <mxPoint x="390" y="1850" as="targetPoint" />
            <Array as="points">
              <mxPoint x="-100" y="1670" />
              <mxPoint x="-100" y="1880" />
              <mxPoint x="-100" y="1984" />
            </Array>
          </mxGeometry>
        </mxCell>
        <mxCell id="gklIOLUVA3WY1OQQszyn-136" value="" style="endArrow=classic;html=1;rounded=0;exitX=0;exitY=0.5;exitDx=0;exitDy=0;entryX=-0.006;entryY=0.685;entryDx=0;entryDy=0;entryPerimeter=0;" parent="1" source="gklIOLUVA3WY1OQQszyn-90" target="gklIOLUVA3WY1OQQszyn-50" edge="1">
          <mxGeometry width="50" height="50" relative="1" as="geometry">
            <mxPoint x="1230" y="2350" as="sourcePoint" />
            <mxPoint x="150" y="1360" as="targetPoint" />
            <Array as="points">
              <mxPoint x="1150" y="2375" />
              <mxPoint x="1150" y="1690" />
              <mxPoint x="100" y="1690" />
              <mxPoint x="100" y="1357" />
            </Array>
          </mxGeometry>
        </mxCell>
        <mxCell id="gklIOLUVA3WY1OQQszyn-137" value="" style="endArrow=classic;html=1;rounded=0;exitX=1;exitY=0.5;exitDx=0;exitDy=0;entryX=1.006;entryY=0.144;entryDx=0;entryDy=0;entryPerimeter=0;" parent="1" source="gklIOLUVA3WY1OQQszyn-91" target="rYQUkMfxaFFYpaaAriBw-11" edge="1">
          <mxGeometry width="50" height="50" relative="1" as="geometry">
            <mxPoint x="920" y="2050" as="sourcePoint" />
            <mxPoint x="1180" y="2781" as="targetPoint" />
            <Array as="points">
              <mxPoint x="1520" y="2405" />
              <mxPoint x="1520" y="2740" />
            </Array>
          </mxGeometry>
        </mxCell>
        <mxCell id="gklIOLUVA3WY1OQQszyn-138" value="" style="endArrow=classic;html=1;rounded=0;exitX=0;exitY=0.5;exitDx=0;exitDy=0;entryX=-0.004;entryY=0.101;entryDx=0;entryDy=0;entryPerimeter=0;" parent="1" source="gklIOLUVA3WY1OQQszyn-94" target="gklIOLUVA3WY1OQQszyn-50" edge="1">
          <mxGeometry width="50" height="50" relative="1" as="geometry">
            <mxPoint x="290" y="2650" as="sourcePoint" />
            <mxPoint x="130" y="1330" as="targetPoint" />
            <Array as="points">
              <mxPoint x="-510" y="2371" />
              <mxPoint x="-510" y="1339" />
            </Array>
          </mxGeometry>
        </mxCell>
        <mxCell id="gklIOLUVA3WY1OQQszyn-139" value="" style="endArrow=classic;html=1;rounded=0;exitX=0;exitY=0.5;exitDx=0;exitDy=0;entryX=1;entryY=0.5;entryDx=0;entryDy=0;" parent="1" source="gklIOLUVA3WY1OQQszyn-101" target="gklIOLUVA3WY1OQQszyn-50" edge="1">
          <mxGeometry width="50" height="50" relative="1" as="geometry">
            <mxPoint x="1090" y="3100" as="sourcePoint" />
            <mxPoint x="130" y="2910" as="targetPoint" />
            <Array as="points">
              <mxPoint x="-580" y="2715" />
              <mxPoint x="-580" y="1230" />
              <mxPoint x="350" y="1230" />
              <mxPoint x="350" y="1351" />
            </Array>
          </mxGeometry>
        </mxCell>
        <mxCell id="gklIOLUVA3WY1OQQszyn-140" value="" style="endArrow=classic;html=1;rounded=0;exitX=1;exitY=0.5;exitDx=0;exitDy=0;entryX=1.004;entryY=0.805;entryDx=0;entryDy=0;entryPerimeter=0;" parent="1" source="gklIOLUVA3WY1OQQszyn-102" target="rYQUkMfxaFFYpaaAriBw-11" edge="1">
          <mxGeometry width="50" height="50" relative="1" as="geometry">
            <mxPoint x="1210" y="2890" as="sourcePoint" />
            <mxPoint x="1210" y="2810" as="targetPoint" />
            <Array as="points">
              <mxPoint x="830" y="2745" />
              <mxPoint x="830" y="3075" />
              <mxPoint x="1390" y="3075" />
              <mxPoint x="1390" y="2760" />
            </Array>
          </mxGeometry>
        </mxCell>
        <mxCell id="yjjlthWo8UBNq7ABsMTa-2" value="" style="endArrow=classic;html=1;rounded=0;exitX=1;exitY=0.5;exitDx=0;exitDy=0;entryX=1.01;entryY=0.75;entryDx=0;entryDy=0;entryPerimeter=0;" parent="1" source="gklIOLUVA3WY1OQQszyn-30" target="gklIOLUVA3WY1OQQszyn-23" edge="1">
          <mxGeometry width="50" height="50" relative="1" as="geometry">
            <mxPoint x="490" y="780" as="sourcePoint" />
            <mxPoint x="500" y="550" as="targetPoint" />
            <Array as="points">
              <mxPoint x="720" y="830" />
              <mxPoint x="720" y="660" />
              <mxPoint x="720" y="490" />
              <mxPoint x="720" y="329" />
            </Array>
          </mxGeometry>
        </mxCell>
        <mxCell id="yjjlthWo8UBNq7ABsMTa-3" value="" style="endArrow=classic;html=1;rounded=0;exitX=1;exitY=0.5;exitDx=0;exitDy=0;entryX=0.996;entryY=0.802;entryDx=0;entryDy=0;entryPerimeter=0;" parent="1" source="gklIOLUVA3WY1OQQszyn-32" target="gklIOLUVA3WY1OQQszyn-19" edge="1">
          <mxGeometry width="50" height="50" relative="1" as="geometry">
            <mxPoint x="250" y="910" as="sourcePoint" />
            <mxPoint x="300" y="860" as="targetPoint" />
            <Array as="points">
              <mxPoint x="1100" y="890" />
              <mxPoint x="1100" y="180" />
            </Array>
          </mxGeometry>
        </mxCell>
        <mxCell id="yjjlthWo8UBNq7ABsMTa-4" value="" style="endArrow=classic;html=1;rounded=0;exitX=1;exitY=0.5;exitDx=0;exitDy=0;entryX=1;entryY=0.5;entryDx=0;entryDy=0;" parent="1" source="gklIOLUVA3WY1OQQszyn-55" target="gklIOLUVA3WY1OQQszyn-19" edge="1">
          <mxGeometry width="50" height="50" relative="1" as="geometry">
            <mxPoint x="330" y="1360" as="sourcePoint" />
            <mxPoint x="620" y="710" as="targetPoint" />
            <Array as="points">
              <mxPoint x="1190" y="1531" />
              <mxPoint x="1190" y="171" />
            </Array>
          </mxGeometry>
        </mxCell>
        <mxCell id="rYQUkMfxaFFYpaaAriBw-1" value="" style="endArrow=classic;html=1;rounded=0;exitX=1;exitY=0.5;exitDx=0;exitDy=0;entryX=0;entryY=0.5;entryDx=0;entryDy=0;" parent="1" source="gklIOLUVA3WY1OQQszyn-79" target="gklIOLUVA3WY1OQQszyn-50" edge="1">
          <mxGeometry width="50" height="50" relative="1" as="geometry">
            <mxPoint x="370" y="1760" as="sourcePoint" />
            <mxPoint x="157" y="1350" as="targetPoint" />
            <Array as="points">
              <mxPoint x="820" y="2141" />
              <mxPoint x="820" y="1780" />
              <mxPoint x="80" y="1780" />
              <mxPoint x="80" y="1350" />
            </Array>
          </mxGeometry>
        </mxCell>
        <mxCell id="rYQUkMfxaFFYpaaAriBw-2" value="" style="endArrow=classic;html=1;rounded=0;exitX=1;exitY=0.5;exitDx=0;exitDy=0;" parent="1" source="gklIOLUVA3WY1OQQszyn-73" edge="1">
          <mxGeometry width="50" height="50" relative="1" as="geometry">
            <mxPoint x="-130" y="1860" as="sourcePoint" />
            <mxPoint x="1020" y="2744" as="targetPoint" />
            <Array as="points">
              <mxPoint x="-130" y="1701" />
              <mxPoint x="-130" y="1950" />
              <mxPoint x="-130" y="2240" />
              <mxPoint x="120" y="2240" />
              <mxPoint x="970" y="2240" />
              <mxPoint x="970" y="2530" />
              <mxPoint x="970" y="2744" />
            </Array>
          </mxGeometry>
        </mxCell>
        <mxCell id="rYQUkMfxaFFYpaaAriBw-4" value="EXAM_TYPE" style="swimlane;fontStyle=0;childLayout=stackLayout;horizontal=1;startSize=30;horizontalStack=0;resizeParent=1;resizeParentMax=0;resizeLast=0;collapsible=1;marginBottom=0;whiteSpace=wrap;html=1;" parent="1" vertex="1">
          <mxGeometry x="-390" y="1840" width="140" height="120" as="geometry" />
        </mxCell>
        <mxCell id="rYQUkMfxaFFYpaaAriBw-5" value="&lt;u&gt;Type_id&lt;/u&gt;" style="text;strokeColor=none;fillColor=none;align=left;verticalAlign=middle;spacingLeft=4;spacingRight=4;overflow=hidden;points=[[0,0.5],[1,0.5]];portConstraint=eastwest;rotatable=0;whiteSpace=wrap;html=1;" parent="rYQUkMfxaFFYpaaAriBw-4" vertex="1">
          <mxGeometry y="30" width="140" height="30" as="geometry" />
        </mxCell>
        <mxCell id="rYQUkMfxaFFYpaaAriBw-6" value="Type_name" style="text;strokeColor=none;fillColor=none;align=left;verticalAlign=middle;spacingLeft=4;spacingRight=4;overflow=hidden;points=[[0,0.5],[1,0.5]];portConstraint=eastwest;rotatable=0;whiteSpace=wrap;html=1;" parent="rYQUkMfxaFFYpaaAriBw-4" vertex="1">
          <mxGeometry y="60" width="140" height="30" as="geometry" />
        </mxCell>
        <mxCell id="rYQUkMfxaFFYpaaAriBw-7" value="Exam_date" style="text;strokeColor=none;fillColor=none;align=left;verticalAlign=middle;spacingLeft=4;spacingRight=4;overflow=hidden;points=[[0,0.5],[1,0.5]];portConstraint=eastwest;rotatable=0;whiteSpace=wrap;html=1;" parent="rYQUkMfxaFFYpaaAriBw-4" vertex="1">
          <mxGeometry y="90" width="140" height="30" as="geometry" />
        </mxCell>
        <mxCell id="rYQUkMfxaFFYpaaAriBw-8" value="" style="endArrow=classic;html=1;rounded=0;exitX=0;exitY=0.5;exitDx=0;exitDy=0;entryX=0;entryY=0.5;entryDx=0;entryDy=0;" parent="1" source="gklIOLUVA3WY1OQQszyn-70" target="rYQUkMfxaFFYpaaAriBw-5" edge="1">
          <mxGeometry width="50" height="50" relative="1" as="geometry">
            <mxPoint x="-500" y="1920" as="sourcePoint" />
            <mxPoint x="-470" y="1930" as="targetPoint" />
            <Array as="points">
              <mxPoint x="-440" y="1640" />
              <mxPoint x="-440" y="1885" />
            </Array>
          </mxGeometry>
        </mxCell>
        <mxCell id="rYQUkMfxaFFYpaaAriBw-9" value="" style="endArrow=classic;html=1;rounded=0;exitX=0;exitY=0.5;exitDx=0;exitDy=0;entryX=0;entryY=0.5;entryDx=0;entryDy=0;" parent="1" source="gklIOLUVA3WY1OQQszyn-92" target="gklIOLUVA3WY1OQQszyn-75" edge="1">
          <mxGeometry width="50" height="50" relative="1" as="geometry">
            <mxPoint x="1080" y="2330" as="sourcePoint" />
            <mxPoint x="1130" y="2280" as="targetPoint" />
            <Array as="points">
              <mxPoint x="1090" y="2435" />
              <mxPoint x="1090" y="2210" />
              <mxPoint x="570" y="2210" />
              <mxPoint x="570" y="1990" />
            </Array>
          </mxGeometry>
        </mxCell>
        <mxCell id="rYQUkMfxaFFYpaaAriBw-12" value="" style="endArrow=classic;html=1;rounded=0;entryX=1;entryY=0.5;entryDx=0;entryDy=0;exitX=1;exitY=0.5;exitDx=0;exitDy=0;" parent="1" source="gklIOLUVA3WY1OQQszyn-106" target="rYQUkMfxaFFYpaaAriBw-11" edge="1">
          <mxGeometry width="50" height="50" relative="1" as="geometry">
            <mxPoint x="40" y="3060" as="sourcePoint" />
            <mxPoint x="1200" y="2760" as="targetPoint" />
            <Array as="points">
              <mxPoint x="400" y="3120" />
              <mxPoint x="1460" y="3120" />
              <mxPoint x="1460" y="2750" />
            </Array>
          </mxGeometry>
        </mxCell>
        <mxCell id="k3zj_mj-kl9qV2J9zvzd-2" value="" style="endArrow=classic;html=1;rounded=0;exitX=0;exitY=0.5;exitDx=0;exitDy=0;entryX=-0.002;entryY=0.231;entryDx=0;entryDy=0;entryPerimeter=0;" parent="1" source="gklIOLUVA3WY1OQQszyn-105" target="gklIOLUVA3WY1OQQszyn-30" edge="1">
          <mxGeometry width="50" height="50" relative="1" as="geometry">
            <mxPoint x="150" y="2910" as="sourcePoint" />
            <mxPoint x="530" y="820" as="targetPoint" />
            <Array as="points">
              <mxPoint x="-790" y="3091" />
              <mxPoint x="-790" y="823" />
            </Array>
          </mxGeometry>
        </mxCell>
        <mxCell id="rMYzRah_iz3KJB5Uy8YU-1" value="" style="endArrow=classic;html=1;rounded=0;exitX=0;exitY=0.5;exitDx=0;exitDy=0;entryX=0.997;entryY=0.184;entryDx=0;entryDy=0;entryPerimeter=0;jumpStyle=arc;" parent="1" source="gklIOLUVA3WY1OQQszyn-85" target="gklIOLUVA3WY1OQQszyn-19" edge="1">
          <mxGeometry width="50" height="50" relative="1" as="geometry">
            <mxPoint x="860" y="2670" as="sourcePoint" />
            <mxPoint x="910" y="2620" as="targetPoint" />
            <Array as="points">
              <mxPoint x="930" y="2841" />
              <mxPoint x="930" y="2060" />
              <mxPoint x="1340" y="2060" />
              <mxPoint x="1340" y="162" />
            </Array>
          </mxGeometry>
        </mxCell>
        <mxCell id="_Owg9Bcg0lMqvvgB9AOh-1" value="COURSE_EXAM_DATES" style="swimlane;fontStyle=0;childLayout=stackLayout;horizontal=1;startSize=30;horizontalStack=0;resizeParent=1;resizeParentMax=0;resizeLast=0;collapsible=1;marginBottom=0;whiteSpace=wrap;html=1;" vertex="1" parent="1">
          <mxGeometry x="340" y="2340" width="140" height="120" as="geometry" />
        </mxCell>
        <mxCell id="_Owg9Bcg0lMqvvgB9AOh-2" value="&lt;u&gt;Course_code&lt;/u&gt;" style="text;strokeColor=none;fillColor=none;align=left;verticalAlign=middle;spacingLeft=4;spacingRight=4;overflow=hidden;points=[[0,0.5],[1,0.5]];portConstraint=eastwest;rotatable=0;whiteSpace=wrap;html=1;" vertex="1" parent="_Owg9Bcg0lMqvvgB9AOh-1">
          <mxGeometry y="30" width="140" height="30" as="geometry" />
        </mxCell>
        <mxCell id="_Owg9Bcg0lMqvvgB9AOh-3" value="&lt;u&gt;Type_id&lt;/u&gt;" style="text;strokeColor=none;fillColor=none;align=left;verticalAlign=middle;spacingLeft=4;spacingRight=4;overflow=hidden;points=[[0,0.5],[1,0.5]];portConstraint=eastwest;rotatable=0;whiteSpace=wrap;html=1;" vertex="1" parent="_Owg9Bcg0lMqvvgB9AOh-1">
          <mxGeometry y="60" width="140" height="30" as="geometry" />
        </mxCell>
        <mxCell id="_Owg9Bcg0lMqvvgB9AOh-4" value="Exam_date" style="text;strokeColor=none;fillColor=none;align=left;verticalAlign=middle;spacingLeft=4;spacingRight=4;overflow=hidden;points=[[0,0.5],[1,0.5]];portConstraint=eastwest;rotatable=0;whiteSpace=wrap;html=1;" vertex="1" parent="_Owg9Bcg0lMqvvgB9AOh-1">
          <mxGeometry y="90" width="140" height="30" as="geometry" />
        </mxCell>
        <mxCell id="_Owg9Bcg0lMqvvgB9AOh-5" value="" style="endArrow=classic;html=1;rounded=0;entryX=1;entryY=0.5;entryDx=0;entryDy=0;exitX=0;exitY=0.5;exitDx=0;exitDy=0;" edge="1" parent="1" source="_Owg9Bcg0lMqvvgB9AOh-3" target="rYQUkMfxaFFYpaaAriBw-5">
          <mxGeometry width="50" height="50" relative="1" as="geometry">
            <mxPoint x="70" y="2200" as="sourcePoint" />
            <mxPoint x="120" y="2150" as="targetPoint" />
            <Array as="points">
              <mxPoint x="-160" y="2415" />
              <mxPoint x="-160" y="1885" />
            </Array>
          </mxGeometry>
        </mxCell>
        <mxCell id="_Owg9Bcg0lMqvvgB9AOh-6" value="" style="endArrow=classic;html=1;rounded=0;exitX=1;exitY=0.5;exitDx=0;exitDy=0;entryX=0;entryY=0.5;entryDx=0;entryDy=0;jumpStyle=arc;" edge="1" parent="1" source="_Owg9Bcg0lMqvvgB9AOh-2" target="rYQUkMfxaFFYpaaAriBw-11">
          <mxGeometry width="50" height="50" relative="1" as="geometry">
            <mxPoint x="1020" y="2720" as="sourcePoint" />
            <mxPoint x="1070" y="2670" as="targetPoint" />
            <Array as="points">
              <mxPoint x="880" y="2385" />
              <mxPoint x="880" y="2750" />
            </Array>
          </mxGeometry>
        </mxCell>
      </root>
    </mxGraphModel>
  </diagram>
</mxfile>
